PathFileType	4	(X/Y/Z)	C:/Users/beibeiliu/ov580/test_trc/User3\sequence.1_training_dense_right.trc
DataRate	CameraRate	NumFrames	NumMarkers	Units	OrigDataRate	OrigDataStartFrame	OrigNumFrames
120	120	16	19	mm	120	33	65
Frame#	Time	ThumbCMC			ThumbMCP			ThumbIP			ThumbTip			IndexMCP			IndexPIP			IndexTip			MiddleMCP			MiddlePIP			MiddleTip			RingMCP			RingPIP			RingTip			PinkyMCP			PinkyPIP			PinkyTip			BackHand1			BackHand2			BackHand3	
		X0	Y0	Z0	X1	Y1	Z1	X2	Y2	Z2	X3	Y3	Z3	X4	Y4	Z4	X5	Y5	Z5	X6	Y6	Z6	X7	Y7	Z7	X8	Y8	Z8	X9	Y9	Z9	X10	Y10	Z10	X11	Y11	Z11	X12	Y12	Z12	X13	Y13	Z13	X14	Y14	Z14	X15	Y15	Z15	X16	Y16	Z16	X17	Y17	Z17	X18	Y18	Z18	
32	0.266667	117.154	52.6307	9.76152	87.9728	48.2096	-7.39604	63.7372	48.7401	-21.9891	45.0638	46.4098	-31.1525	108.623	19.731	-60.9488	87.1005	14.9414	-83.6008	74.7998	7.11508	-98.5286	127.063	-1.14121	-65.2924	112.586	-12.2886	-90.5282	99.2286	-29.847	-112.883	139.447	-18.6426	-54.1106	132.022	-31.8323	-74.516	122.52	-51.8366	-93.1935	150.396	-31.8326	-31.5546	148.573	-52.1129	-43.704	139.547	-70.7282	-60.1343	163.755	8.04384	-16.5507	175.52	17.6569	6.95287	148.646	37.1125	-12.6176	
33	0.275	120.851	59.0176	10.772	95.9608	67.0352	-2.81284	72.5095	73.3785	-19.4276	54.4824	80.0051	-32.7296	102.924	33.2838	-62.4309	87.8675	31.2369	-81.2597	72.8509	24.5528	-99.705	116.674	1.67281	-60.9362	100.855	-3.76577	-86.5465	82.2841	-12.8045	-108.469	120.952	-18.833	-52.0593	111.433	-29.9809	-69.5225	97.3254	-45.1567	-84.3819	126.654	-34.1805	-28.1337	118.406	-50.7106	-37.6429	107.11	-70.4899	-51.2879	152.95	5.18418	-13.456	164.631	12.2851	9.27171	146.316	40.9629	-6.15288	
34	0.283333	125.476	64.0946	8.75515	105.606	80.9565	-8.3978	88.6897	89.5758	-23.1029	74.5628	105.438	-37.5304	104.521	38.5303	-60.9418	89.3264	46.5891	-85.8883	76.8924	44.7121	-102.423	106.053	14.3246	-65.0483	91.7283	8.84306	-85.3004	68.795	2.46274	-110.316	105.003	-7.66951	-49.358	92.6187	-18.129	-65.716	72.463	-27.2366	-87.5861	102.456	-25.4	-25.3166	88.3722	-39.6263	-34.199	74.1599	-51.4296	-47.128	138.674	2.84484	-7.69063	153.48	8.50446	16.0249	143.918	38.2212	-6.84375	
35	0.291667	136.945	64.6573	10.6977	123.636	85.1932	-13.7947	114.653	102.716	-31.0661	105.015	113.719	-45.7317	112.657	47.1075	-65.6568	100.829	49.0589	-84.7044	92.3201	55.135	-106.813	102.72	17.5883	-65.773	88.5621	16.8575	-87.6405	68.734	15.0968	-111	93.4873	-0.97876	-46.099	79.188	-3.89902	-69.8436	58.712	-11.5432	-88.1713	83.1376	-12.9389	-26.4049	68.9617	-18.5188	-33.3334	49.1939	-28.2564	-46.3323	129.333	4.49429	-7.96025	142.468	3.38509	20.9311	144.837	30.4548	-4.27268	
36	0.3	153.191	53.8321	6.17596	150.774	73.3175	-13.5293	152.04	91.4815	-41.2612	151.955	105.301	-54.2162	128.659	33.8368	-65.2691	126.638	41.3163	-88.4514	119.072	41.7278	-109.712	111.954	16.5385	-65.9605	99.0544	16.7179	-87.4994	86.246	20.0803	-118.47	94.172	5.03742	-47.0937	79.6573	2.87627	-71.1086	64.2625	2.1822	-92.2071	77.6991	-0.255651	-22.4385	58.035	-4.80305	-38.5987	47.6897	-7.75923	-49.7734	121.935	1.28249	-3.59926	132.202	-2.19559	20.5199	149.709	18.5398	1.73987	
37	0.308333	180.22	31.4544	13.2576	189.209	48.2032	-12.0016	199.178	61.2957	-40.6529	204.415	72.3061	-55.7437	166.793	6.13244	-60.8497	168.45	6.76326	-86.1632	172.886	9.72788	-111.874	143.231	-9.13583	-64.0245	134.865	-9.24827	-89.7053	127.173	-6.06165	-121.302	121.668	-11.7934	-49.3148	111.954	-13.1925	-75.9855	103.372	-12.9605	-97.6793	98.5036	-8.59022	-29.9295	83.9678	-10.1834	-47.1688	72.5758	-13.1673	-63.9957	139.038	-16.3123	0.510715	140.701	-18.0439	25.9266	168.714	-3.66082	3.00253	
38	0.316667	219.777	16.2659	18.3847	230.511	30.2342	-7.42041	243.802	40.9521	-34.4256	249.969	51.8829	-48.0186	222.647	-18.9348	-56.8053	231.36	-18.2812	-81.2174	233.602	-15.6232	-107.157	197.021	-35.8897	-57.7193	199.646	-36.9787	-85.9472	197.326	-34.7587	-120.67	176.804	-36.9583	-53.0163	170.345	-41.9645	-73.3521	166.127	-41.321	-101.056	150.047	-32.5298	-33.8172	137.24	-34.8158	-49.7152	128.407	-37.9354	-70.0474	182.526	-33.5367	2.85628	182.342	-32.1198	28.5252	210.876	-21.8721	11.4716	
39	0.325	258.198	32.0026	19.4659	266.811	43.5981	-9.92224	275.631	54.5162	-33.5613	280.825	67.4366	-48.0651	277.673	-3.957	-46.1937	290.023	-3.11693	-72.0205	295.066	0.0482413	-99.2285	264.222	-29.0498	-55.3393	266.415	-33.8991	-84.2611	265.447	-32.9646	-116.886	238.426	-39.7391	-51.8059	240.312	-44.3987	-74.821	237.347	-45.7467	-103.086	213.66	-39.9345	-38.6544	202.224	-47.8767	-57.3824	194.202	-52.666	-78.9621	234.849	-32.4245	3.1562	227.937	-27.9804	31.9866	259.949	-8.93907	15.2383	
40	0.333333	270.136	63.0807	12.8632	270.794	78.0219	-11.9067	275.719	94.2447	-35.6601	278.042	104.456	-54.3749	306.901	38.9417	-49.1023	314.806	41.5724	-75.1194	320.177	46.5435	-103.601	302.608	6.72576	-54.5008	309.833	7.85187	-80.5958	313.269	6.35496	-115.416	284.934	-10.4487	-48.4263	292.953	-14.8718	-74.0726	293.173	-21.001	-100.124	261.729	-24.9094	-39.0989	258.889	-35.4631	-59.3004	255.956	-44.3645	-79.4263	278.162	-1.80007	0.925002	269.328	-2.52687	29.424	284.929	26.1308	13.5946	
41	0.341667	252.694	85.1659	6.08206	245.161	101.609	-17.0097	244.438	115.279	-44.454	239.546	130.184	-62.1702	295.397	83.0855	-57.7866	299.987	88.8348	-83.8341	302.266	95.7569	-106.53	308.614	54.6289	-63.8208	314.519	53.3086	-89.4742	317.417	53.7808	-123.025	302.352	28.3409	-57.044	309.903	28.4262	-77.3164	314.051	21.2919	-108.235	285.742	5.31779	-41.7957	291.691	-3.65403	-66.1321	293.312	-15.9416	-81.5989	290.618	31.8913	-2.53972	281.233	29.3114	20.1752	282.932	65.1837	7.64598	
42	0.35	222.11	93.4648	-2.37764	206.656	103.389	-24.1887	195.259	118.209	-50.4762	183.68	129.632	-65.9474	258.641	107.349	-71.5175	256.619	114.474	-92.0798	255.523	122.576	-115.363	283.286	88.4524	-73.4928	287.064	92.4454	-96.018	289.218	97.7249	-129.346	285.859	66.8723	-64.6368	296.433	67.2687	-88.1644	301.256	67.4496	-112.209	286.105	36.2815	-49.831	295.493	29.8493	-67.9342	304.764	22.5157	-89.6509	277.968	63.4132	-11.7585	273.486	56.7906	11.7961	258.067	89.5653	-4.63398	
43	0.358333	187.898	91.052	-7.05702	172.261	92.7146	-29.5472	154.169	100.985	-50.914	139.874	106.041	-64.9704	217.358	110.732	-75.2312	207.39	121.162	-102.573	204.085	126.388	-121.707	243.569	102.205	-77.7186	244.151	111.736	-105.855	245.409	116.576	-134.876	258.697	84.6155	-70.3165	266.919	89.8429	-97.5093	275.336	88.4453	-120.134	270.324	58.054	-58.1746	278.411	56.5697	-77.2887	290.559	51.2424	-96.272	252.109	80.3969	-19.7846	252.014	75.1866	4.74649	227.619	95.1492	-8.5792	
44	0.366667	165.498	81.7708	-12.4649	145.505	80.6753	-29.6636	124.662	83.4004	-50.1374	107.002	85.25	-63.7627	180.182	108.407	-83.0749	170.324	111.794	-103.308	167.55	115.378	-129.007	210.008	104.975	-85.6749	211.915	110.636	-112.716	208.933	116.116	-142.684	231.136	90.5244	-79.4191	236.428	97.1993	-103.229	243.57	97.201	-126.483	242.902	68.2828	-64.4103	257.192	66.1288	-83.743	265.238	66.6586	-103.102	228.239	88.2047	-28.9829	227.916	79.9354	2.65917	197.335	97.0524	-12.8331	
45	0.375	141.299	72.3149	-10.9973	118.685	68.1946	-30.1593	95.9825	67.2758	-48.3493	78.1345	64.7399	-60.7553	152.401	95.0486	-81.2747	136.835	96.315	-105.181	129.418	97.6705	-131.509	177.803	98.3638	-87.3881	175.223	102.838	-112.935	174.642	104.44	-146.596	199.287	86.3064	-78.4576	205.016	93.285	-106.477	210.211	95.4255	-131.179	222.016	68.6467	-67.4535	228.098	68.1919	-84.5194	244.436	67.2607	-104.857	198.497	86.0612	-30.3652	206.852	82.864	0.0947941	167.879	93.9051	-18.1229	
46	0.383333	119.696	61.3409	-8.86952	101.626	53.182	-26.7012	76.3255	47.5201	-46.6213	64.2011	41.4927	-55.9134	125.361	76.421	-82.0396	116.187	74.8969	-107.138	107.037	72.1004	-133.981	155.902	81.3836	-89.4992	150.982	83.9023	-118.014	148.88	81.8563	-148.937	177.058	73.8782	-80.7194	181.005	78.2376	-108.933	185.194	78.1562	-134.911	203.608	59.6224	-68.7912	213.386	57.1452	-89.771	218.918	56.7354	-108.229	182.506	76.4189	-36.7342	186.834	79.0664	-7.40815	151.14	83.3109	-19.9783	
47	0.391667	114.059	50.3714	-5.84981	88.8492	39.426	-23.4699	67.3193	30.8817	-40.0012	55.1331	22.0599	-55.3062	113.623	55.5671	-81.3455	105.712	51.0625	-108.856	92.7547	45.5965	-128.749	146.246	60.2503	-93.4966	139.427	58.6655	-122.575	133.54	54.3272	-152.547	167.312	54.6519	-81.8688	172.655	55.3052	-111.276	173.42	52.3918	-134.611	190.531	42.8917	-68.1789	197.144	40.126	-88.192	207.391	37.6784	-107.16	171.547	66.0906	-35.2718	173.151	71.2363	-5.76702	138.862	72.0001	-18.7729	
